PathFileType	4	(X/Y/Z)	/home/abdul/Documents/myosuite/MHH/MHH/IK/original/output/S5_12_1.trc
DataRate	CameraRate	NumFrames	NumMarkers	Units	OrigDataRate	OrigDataStartFrame	OrigNumFrames
200.0	200.0	33	3	mm	200.0	159	1267
Frame#	Time	V_Shoulder			V_Elbow			V_Wrist		
		X1	Y1	Z1	X2	Y2	Z2	X3	Y3	Z3

159	0.79	-5.929164166254725	715.4601828527224	250.48658002958314	-149.74585696695027	549.9203690593166	26.94563028051431	-43.141205443909996	325.19055720354686	48.051395495908935
160	0.795	-5.906131140779162	715.276432109828	250.4965186593914	-149.68265494106458	549.8350792191173	26.88991859737359	-43.212369633291225	324.88095726291556	47.51744773760923
161	0.8	-5.883911470991087	715.0945340803951	250.50683428993958	-149.62379191265177	549.7538016491375	26.835342345156263	-43.287137213364026	324.58053045501305	46.993366565981574
162	0.805	-5.862538784871767	714.9145546939336	250.51747278991093	-149.5691995663077	549.6764554526362	26.78186930989675	-43.36469019594017	324.28944769543716	46.4796807403825
163	0.81	-5.842045376072483	714.7365541249889	250.52837947913818	-149.5188051445824	549.6029623948807	26.729457992595876	-43.444216107068165	324.0078841403772	45.97693141667
164	0.815	-5.822462165202613	714.5605869799307	250.53949928543807	-149.4725317683228	549.5332473533383	26.678057739340673	-43.52490925527572	323.73602033516283	45.485673195377245
165	0.82	-5.803818664308369	714.3867025036494	250.5507768969065	-149.43029875173454	549.4672387382091	26.627608897616298	-43.60597197065833	323.47404332565833	45.00647505671803
166	0.825	-5.786142944569001	714.2149448048559	250.5621569093959	-149.39202191121595	549.4048688815262	26.578042998872284	-43.68661581447348	323.2221477261336	44.5399211752592
167	0.83	-5.7694616072202605	714.0453530986257	250.57358396894378	-149.35761386710516	549.3460743931767	26.52928296741292	-43.766062758939334	322.98053673742993	44.08661160772101
168	0.835	-5.753799757697611	713.8779619647944	250.58500290896984	-149.32698433757076	549.2907964823083	26.481243355686093	-43.84354633695998	322.7494231094586	43.6471628480191
169	0.84	-5.739180982974361	713.712801620763	250.59635888210747	-149.30004042396772	549.2389812427318	26.433830606045657	-43.91831276150642	322.5290300423201	43.22220824434119
170	0.845	-5.725627332052677	713.5498982072455	250.60759748657892	-149.27668688707314	549.1905799010481	26.38694333905857	-43.989622014375136	322.31959202061205	42.81239827375363
171	0.85	-5.713159299548401	713.3892740854644	250.61866488707065	-149.25682641370955	549.1455490263819	26.34047266841873	-44.056748904024616	322.12135557580496	42.41840067055743
172	0.855	-5.701795812294037	713.2309481442808	250.6295079301066	-149.24035987335583	549.1038507007377	26.294302542514654	-44.11898409215576	321.9345799719009	42.0409004053572
173	0.86	-5.691554218868191	713.0749361157365	250.64007425395616	-149.22718656443806	549.0654526491512	26.248310112676602	-44.17563508865681	321.759537809956	41.680599512567824
174	0.865	-5.682450281944324	712.9212508974744	250.65031239315604	-149.2172044500831	549.0303283289579	26.202366128100714	-44.226027214477476	321.59651554743607	41.338216764859894
175	0.87	-5.674498173337109	712.7699028805094	250.6601718777557	-149.21031038320424	548.9984569776619	26.156335357412065	-44.26950453193344	321.4458139287884	41.0144871938342
176	0.875	-5.667710471610981	712.6209002808245	250.66960332743335	-149.20640032087442	548.9698236190492	26.110077036785945	-44.30543074187154	321.307748324042	40.710161457014586
177	0.88	-5.662098162102893	712.4742494732824	250.67855854065752	-149.20536952802235	548.9444190273533	26.063445344495886	-44.33319004705075	321.18264897270285	40.4260050520552
178	0.885	-5.657670639199748	712.3299553263605	250.68699057909643	-149.20711277056344	548.9222396494555	26.016289901698723	-44.35218798101559	321.07086113067544	40.16279737986946
179	0.89	-5.65443571070081	712.1880215362398	250.69485384750269	-149.2115244981492	548.9032874852676	25.968456299200923	-44.361852201659005	320.97274511841925	39.92133065920005
180	0.895	-5.65239960408648	712.0484509588124	250.70210416932096	-149.21849901678382	548.8875699266229	25.91978664987651	-44.36163324859278	320.8886762690404	39.7024086959604
181	0.9	-5.6515669745074115	711.9112459382035	250.70869885828395	-149.2279306516171	548.8750995551748	25.870120166325858	-44.35100526336746	320.8190447755104	39.50684551148274
182	0.905	-5.651940914301878	711.7764086304478	250.7145967862762	-149.23971390027515	548.8658938999777	25.81929376327605	-44.32946667151132	320.7642554367069	39.3354638346038
183	0.91	-5.653522963844934	711.6439413210041	250.71975844775716	-149.25374357713716	548.8599751556037	25.76714268412805	-44.296540825292276	320.7247273024667	39.18909346330214
184	0.915	-5.656313123529976	711.5138467348411	250.72414602104163	-149.26991494900435	548.8573698618197	25.713501150954453	-44.251776606047876	320.7008932183419	39.068569502366294
185	0.92	-5.660309866682067	711.3861283378848	250.72772342673997	-149.28812386263996	548.8581085460276	25.65820303714376	-44.194748984879595	320.693199271239	38.97473048431668
186	0.925	-5.665510153202703	711.2607906286748	250.7304563836618	-149.3082668646815	548.8622253298377	25.601082561774515	-44.125059540468676	320.7021041376046	38.90841638152223
187	0.93	-5.671909443747642	711.1378394191385	250.7323124624842	-149.3302413144437	548.8697575013166	25.541975004685188	-44.04233693274372	320.72807833629247	38.87046651813925
188	0.935	-5.6795017142429955	711.0172821034603	250.73326113747976	-149.35394549013796	548.8807450546104	25.48071744108454	-43.94623733111597	320.7716033887041	38.8617173911518
189	0.94	-5.68827947054992	710.8991279140906	250.73327383659077	-149.37927868903608	548.8952301988072	25.417149494423168	-43.836444795997124	320.8331708892347	38.88300041040436
190	0.945	-5.69823376309488	710.7833881640095	250.7323239901244	-149.406141322098	548.9132568380502	25.351114106120736	-43.71267161232868	320.9132814894785	38.935139568083954
191	0.95	-5.709354201290714	710.6700764744359	250.73038707832904	-149.43443500357085	548.9348700250597	25.282458320616108	-43.57465857387912	321.01244380004715	39.018949048626254
